<?xml version="1.0" encoding="iso-8859-1"?>
<!-- Uploaded to: SVG Repo, www.svgrepo.com, Generator: SVG Repo Mixer Tools -->
<svg fill="#000000" height="800px" width="800px" version="1.1" id="Layer_1" xmlns="http://www.w3.org/2000/svg" xmlns:xlink="http://www.w3.org/1999/xlink" 
	 viewBox="0 0 512.005 512.005" xml:space="preserve">
<g>
	<g>
		<g>
			<path d="M490.669,149.338h-128v-42.667c0-11.782-9.551-21.333-21.333-21.333H290.52l27.23-54.459
				c5.269-10.538,0.998-23.353-9.541-28.622s-23.353-0.998-28.622,9.541l-23.586,47.171l-23.586-47.171
				c-5.269-10.538-18.083-14.81-28.622-9.541s-14.81,18.083-9.541,28.622l27.23,54.459h-50.815
				c-11.782,0-21.333,9.551-21.333,21.333v42.667h-128c-11.782,0-21.333,9.551-21.333,21.333v320
				c0,11.782,9.551,21.333,21.333,21.333h469.333c11.782,0,21.333-9.551,21.333-21.333v-320
				C512.002,158.889,502.451,149.338,490.669,149.338z M192.002,128.005h128v21.333h-128V128.005z M469.336,469.338H42.669V192.005
				h128h170.667h128V469.338z"/>
			<path d="M298.669,213.338H85.336c-11.782,0-21.333,9.551-21.333,21.333v192c0,11.782,9.551,21.333,21.333,21.333h213.333
				c11.782,0,21.333-9.551,21.333-21.333v-192C320.002,222.889,310.451,213.338,298.669,213.338z M277.336,256.005v32
				l-58.759,44.069l-30.157-45.236c-0.111-0.166-0.238-0.313-0.352-0.475c-0.115-0.162-0.211-0.332-0.331-0.492
				c-0.098-0.131-0.21-0.245-0.31-0.373c-0.237-0.302-0.481-0.593-0.732-0.879c-0.222-0.254-0.447-0.504-0.679-0.745
				c-0.263-0.273-0.532-0.535-0.807-0.791c-0.246-0.23-0.494-0.456-0.749-0.672c-0.277-0.235-0.559-0.459-0.846-0.678
				c-0.274-0.209-0.549-0.414-0.832-0.609c-0.285-0.196-0.575-0.382-0.867-0.564c-0.3-0.186-0.601-0.367-0.908-0.537
				c-0.292-0.162-0.589-0.313-0.887-0.46c-0.32-0.158-0.641-0.311-0.968-0.452c-0.302-0.131-0.608-0.25-0.915-0.367
				c-0.332-0.126-0.665-0.247-1.002-0.355c-0.316-0.102-0.633-0.192-0.953-0.279c-0.337-0.092-0.674-0.179-1.014-0.254
				c-0.331-0.073-0.663-0.134-0.997-0.191c-0.335-0.057-0.669-0.11-1.007-0.152c-0.345-0.042-0.691-0.072-1.039-0.098
				c-0.331-0.024-0.661-0.045-0.993-0.054c-0.354-0.01-0.708-0.007-1.063,0.001c-0.329,0.007-0.657,0.019-0.986,0.042
				c-0.355,0.024-0.708,0.062-1.062,0.104c-0.331,0.04-0.661,0.083-0.991,0.139c-0.346,0.058-0.69,0.128-1.035,0.204
				c-0.337,0.074-0.672,0.153-1.006,0.243c-0.33,0.09-0.658,0.191-0.985,0.297c-0.344,0.111-0.686,0.229-1.026,0.359
				c-0.312,0.119-0.62,0.249-0.928,0.383c-0.345,0.151-0.687,0.308-1.026,0.479c-0.299,0.15-0.594,0.31-0.888,0.476
				c-0.331,0.187-0.659,0.38-0.984,0.586c-0.137,0.087-0.28,0.158-0.416,0.248c-0.166,0.111-0.313,0.238-0.475,0.353
				c-0.162,0.115-0.331,0.211-0.491,0.331l-51.2,38.4v-64H277.336z M106.669,405.338v-32l58.759-44.069l30.157,45.236
				c0.111,0.166,0.238,0.313,0.353,0.475c0.115,0.162,0.211,0.331,0.331,0.491c0.098,0.131,0.21,0.245,0.31,0.373
				c0.237,0.302,0.482,0.594,0.733,0.88c0.222,0.254,0.447,0.503,0.678,0.744c0.263,0.273,0.533,0.536,0.808,0.793
				c0.246,0.23,0.493,0.455,0.748,0.671c0.277,0.235,0.56,0.46,0.847,0.679c0.273,0.209,0.548,0.413,0.83,0.608
				c0.286,0.197,0.576,0.383,0.869,0.565c0.299,0.186,0.6,0.366,0.906,0.536c0.293,0.162,0.59,0.314,0.89,0.461
				c0.319,0.158,0.639,0.31,0.965,0.451c0.303,0.131,0.609,0.251,0.918,0.368c0.331,0.125,0.663,0.246,1,0.354
				c0.316,0.102,0.635,0.193,0.955,0.28c0.336,0.091,0.672,0.178,1.012,0.253c0.332,0.073,0.665,0.134,1,0.192
				c0.334,0.057,0.668,0.11,1.004,0.151c0.346,0.043,0.692,0.073,1.04,0.098c0.331,0.024,0.66,0.045,0.992,0.054
				c0.355,0.01,0.709,0.007,1.064-0.002c0.328-0.007,0.656-0.019,0.984-0.041c0.355-0.024,0.709-0.062,1.064-0.104
				c0.331-0.04,0.66-0.083,0.989-0.138c0.346-0.058,0.691-0.128,1.035-0.204c0.337-0.074,0.672-0.153,1.006-0.243
				c0.331-0.09,0.658-0.191,0.986-0.297c0.344-0.111,0.685-0.229,1.024-0.358c0.312-0.119,0.621-0.249,0.929-0.384
				c0.345-0.151,0.686-0.308,1.025-0.478c0.299-0.15,0.594-0.31,0.888-0.476c0.332-0.187,0.66-0.38,0.984-0.587
				c0.137-0.087,0.28-0.157,0.416-0.248c0.166-0.111,0.313-0.238,0.475-0.353c0.162-0.115,0.331-0.211,0.491-0.331l51.2-38.4v64
				H106.669z"/>
			<path d="M394.669,320.005c29.446,0,53.333-23.887,53.333-53.333c0-29.446-23.887-53.333-53.333-53.333
				s-53.333,23.887-53.333,53.333C341.336,296.117,365.223,320.005,394.669,320.005z M394.669,256.005
				c5.882,0,10.667,4.785,10.667,10.667c0,5.882-4.785,10.667-10.667,10.667s-10.667-4.785-10.667-10.667
				C384.002,260.789,388.787,256.005,394.669,256.005z"/>
			<path d="M394.669,341.338c-29.446,0-53.333,23.887-53.333,53.333s23.887,53.333,53.333,53.333s53.333-23.887,53.333-53.333
				S424.115,341.338,394.669,341.338z M394.669,405.338c-5.882,0-10.667-4.785-10.667-10.667s4.785-10.667,10.667-10.667
				s10.667,4.785,10.667,10.667S400.551,405.338,394.669,405.338z"/>
		</g>
	</g>
</g>
</svg>